<?xml version="1.0" encoding="UTF-8"?>
<!DOCTYPE svg PUBLIC "-//W3C//DTD SVG 1.0//EN" "http://www.w3.org/TR/2001/REC-SVG-20010904/DTD/svg10.dtd">
<svg xmlns="http://www.w3.org/2000/svg"  width="900"
    height="900"
    viewBox="0 0 3000 3000">
    <g transform="translate (300,500)">
        <line x1="150"
            x2="150"
            y1="1100"
            y2="-410"
            stroke="black"
            stroke-width="3"/>
        
        
        <line x1="150" x2="200" y1="1000" y2="1000" stroke="black" stroke-width="3"/>
        <line x1="150" x2="200" y1="900" y2="900" stroke="black" stroke-width="3"/>
        <line x1="150" x2="200" y1="800" y2="800" stroke="black" stroke-width="3"/>
        <line x1="150" x2="300" y1="700" y2="700" stroke="red" stroke-width="3"/>
        <line x1="150" x2="300" y1="600" y2="600" stroke="red" stroke-width="3"/>
        <line x1="150" x2="200" y1="500" y2="500" stroke="black" stroke-width="3"/>
        <line x1="150" x2="200" y1="400" y2="400" stroke="black" stroke-width="3"/>
        <line x1="150" x2="300" y1="300" y2="300" stroke="red" stroke-width="3"/>
        <line x1="150" x2="200" y1="400" y2="400" stroke="black" stroke-width="3"/>
        <line x1="150" x2="200" y1="200" y2="200" stroke="black" stroke-width="3"/>
        <line x1="150" x2="200" y1="100" y2="100" stroke="black" stroke-width="3"/>
        <line x1="150" x2="200" y1="0" y2="0" stroke="black" stroke-width="3"/>
        <line x1="150" x2="200" y1="-100" y2="-100" stroke="black" stroke-width="3"/>
        <line x1="150" x2="200" y1="-200" y2="-200" stroke="black" stroke-width="3"/>
        <line x1="150" x2="300" y1="-300" y2="-300" stroke="red" stroke-width="3"/>
        
        <text x="300" y="-300" font-size="50px">Beginning of the French and Indian War (1754)</text>
        <text x="300" y="-200" font-size="45px">Letter to Mother (May 6, 1755)</text>
        <text x="300" y="-100" font-size="45px">Jack Washington (June 7, 1755)</text>
        <text x="300" y="0" font-size="45px">Samuel Washington (June 14, 1755)</text>
        <text x="300" y="100" font-size="45px">Colin Campbell (August 2, 1775)</text>
        <text x="300" y="200" font-size="50px">End of French and Indian War (1763)</text>
        <text x="300" y="300" font-size="50px">Beginning of American Revolution</text>
        <text x="300" y="400" font-size="45px">Indian Chiefs (December 24, 1776)</text>
        <text x="300" y="500" font-size="45px">Diary Entry from May 1781</text>
        <text x="300" y="600" font-size="50px">End of American Revolution (1783)</text>
        <text x="300" y="700" font-size="50px">Constitutional Convention (May-September 1787)</text>
        <text x="300" y="800" font-size="45px">James Madison Letter (February 5, 1788)</text>
        <text x="300" y="900" font-size="45px">Diary Entry from September 1794</text>
        <text x="300" y="1000" font-size="45px">Diary Entry from October 1794</text>
        
        <text x="1500" y="400" font-size="55px">Timeline of the Documents Used</text>
        
    </g>
</svg>